<?xml version="1.0" encoding="UTF-8" standalone="no"?>
<!-- Created with Inkscape (http://www.inkscape.org/) -->
<svg
   xmlns:dc="http://purl.org/dc/elements/1.1/"
   xmlns:cc="http://creativecommons.org/ns#"
   xmlns:rdf="http://www.w3.org/1999/02/22-rdf-syntax-ns#"
   xmlns:svg="http://www.w3.org/2000/svg"
   xmlns="http://www.w3.org/2000/svg"
   xmlns:sodipodi="http://sodipodi.sourceforge.net/DTD/sodipodi-0.dtd"
   xmlns:inkscape="http://www.inkscape.org/namespaces/inkscape"
   width="744.09448819"
   height="1052.3622047"
   id="svg2428">
  <defs
     id="defs2430">
    <clipPath
       clipPathUnits="userSpaceOnUse"
       id="clipPath2418">
      <path
         d="M 0,792 L 612,792 L 612,0 L 0,0 L 0,792 z"
         id="path2420" />
    </clipPath>
  </defs>
    <g
       transform="matrix(1.25,0,0,-1.25,-266.11357,617.76326)"
       id="g2414">
      <g
         id="g2416"
         clip-path="url(#clipPath2418)">
        <path
           d="M 319.748,391.178 L 247.748,391.178 L 247.748,463.178 L 319.748,463.178 L 319.748,391.178 z"
           style="fill:#ffffff;fill-opacity:1;fill-rule:nonzero;stroke:none"
           id="path2422" />
        <path
           d="M 319.748,391.178 L 247.748,391.178 L 247.748,463.178 L 319.748,463.178 L 319.748,391.178 z"
           style="fill:none;stroke:#028053;stroke-width:1;stroke-linecap:butt;stroke-linejoin:miter;stroke-miterlimit:4;stroke-dasharray:none;stroke-opacity:1"
           id="path2424" />
        <path
           d="M 285.52,430.678 L 285.52,431.056 C 285.52,431.623 284.908,431.623 284.908,431.623 L 281.974,431.623 C 281.44,431.623 281.385,431.056 281.385,431.056 L 281.385,429.399 C 281.385,429.056 281.591,428.872 281.591,428.872 L 282.796,427.666 L 285.336,430.206 C 285.336,430.206 285.52,430.345 285.52,430.678 M 287.597,419.905 L 287.597,422.817 L 284.239,426.175 L 287.285,429.221 C 287.285,429.221 287.574,429.531 287.574,430.154 L 287.574,432.532 C 287.574,432.532 287.553,433.666 286.485,433.666 L 280.327,433.666 C 280.327,433.666 279.282,433.688 279.282,432.399 L 279.282,428.753 C 279.282,428.753 279.349,428.153 279.615,427.887 C 279.882,427.619 281.316,426.186 281.316,426.186 L 279.638,424.507 C 279.638,424.507 279.26,424.129 279.26,423.573 L 279.26,418.594 C 279.26,418.594 279.349,417.593 280.416,417.593 L 287.482,417.593 L 285.371,419.705 L 282.062,419.705 C 282.062,419.705 281.372,419.705 281.372,420.35 L 281.372,422.862 C 281.372,422.862 281.339,423.251 281.705,423.618 C 282.072,423.984 282.795,424.707 282.795,424.707 L 287.597,419.905 z M 254.778,432.518 L 254.778,428.787 C 254.902,425.815 256.932,425.865 256.932,425.865 L 274.118,425.865 C 276.296,426.236 276.173,428.713 276.173,428.713 C 276.173,428.713 276.247,438.593 276.173,440.896 C 276.098,443.198 273.788,443.063 273.788,443.063 L 263.265,443.063 C 261.548,443.063 261.365,444.733 261.365,444.733 L 261.365,452.335 C 261.563,453.995 263.172,453.995 263.172,453.995 L 267.902,453.995 C 269.487,453.821 269.462,452.371 269.462,452.371 L 269.462,450.314 L 276.153,450.314 L 276.153,454.006 C 276.153,454.006 276.346,455.258 275.578,456.001 C 274.811,456.743 273.721,456.659 273.721,456.659 L 256.832,456.659 C 254.823,456.659 254.803,454.589 254.803,454.589 L 254.803,442.331 C 254.803,441.44 254.926,441.168 255.422,440.723 C 255.918,440.276 257.163,440.276 257.163,440.276 L 268.1,440.276 C 268.273,440.276 268.719,440.276 269.115,439.831 C 269.512,439.386 269.487,438.691 269.487,438.691 L 269.487,430.025 C 269.388,428.861 268.174,428.887 268.174,428.887 L 262.529,428.887 C 261.266,429.109 261.386,430.224 261.386,430.224 L 261.386,432.518 L 254.778,432.518 z M 305.854,402.017 C 305.854,400.953 305.041,400.805 305.041,400.805 L 298.636,400.805 C 297.379,400.854 297.403,402.017 297.403,402.017 C 297.403,402.017 297.354,423.855 297.403,424.376 C 297.453,424.896 297.65,425.094 297.65,425.094 C 297.871,425.59 298.932,425.44 298.932,425.44 L 304.449,425.44 C 306.052,425.44 305.825,423.88 305.825,423.88 L 305.825,419.986 L 312.507,419.986 L 312.507,426.183 C 312.507,427.174 312.31,427.471 311.816,428.14 C 311.323,428.808 310.216,428.856 310.216,428.856 C 310.216,428.856 293.419,428.851 293.264,428.856 C 293.109,428.863 291.958,428.931 291.244,428.089 C 290.529,427.248 290.678,426.088 290.678,426.088 L 290.678,400.631 C 290.678,399.59 291.195,398.675 291.195,398.675 C 292.132,397.686 293.215,397.883 293.215,397.883 L 309.648,397.883 C 309.648,397.883 310.758,397.883 311.596,398.749 C 312.434,399.616 312.408,400.953 312.408,400.953 L 312.408,406.193 L 305.847,406.193 C 305.847,406.193 305.854,403.082 305.854,402.017 M 314.224,460.791 L 315.934,460.793 L 290.353,435.213 L 290.353,432.217 L 317.362,459.226 L 317.362,393.563 L 251.658,393.566 L 275.888,417.795 L 275.888,420.717 L 250.134,394.963 L 250.134,395.063 L 250.134,460.791 L 314.224,460.791 z"
           style="fill:#028053;fill-opacity:1;fill-rule:nonzero;stroke:none"
           id="path2426" />
      </g>
    </g>
</svg>
