<?xml version="1.0" encoding="UTF-8" standalone="no"?>
<svg
   xmlns:dc="http://purl.org/dc/elements/1.1/"
   xmlns:cc="http://creativecommons.org/ns#"
   xmlns:rdf="http://www.w3.org/1999/02/22-rdf-syntax-ns#"
   xmlns:svg="http://www.w3.org/2000/svg"
   xmlns="http://www.w3.org/2000/svg"
   xmlns:sodipodi="http://sodipodi.sourceforge.net/DTD/sodipodi-0.dtd"
   xmlns:inkscape="http://www.inkscape.org/namespaces/inkscape"
   viewBox="0 0 91.250003 91.250003"
   version="1.1"
   id="svg3695">
  <path
     d="m 90.625,90.625 h -90 v -90 h 90 z"
     id="path3685"
     style="fill:#ffffff;stroke-width:1.25" />
  <path
     d="m 90.625,90.625 h -90 v -90 h 90 z"
     id="path3687"
     style="fill:none;stroke:#028053;stroke-width:1.25" />
  <path
     d="m 47.8375,41.25 v -0.4725 c 0,-0.70875 -0.765,-0.70875 -0.765,-0.70875 H 43.405 c -0.6675,0 -0.73625,0.70875 -0.73625,0.70875 v 2.07125 c 0,0.42875 0.2575,0.65875 0.2575,0.65875 l 1.50625,1.5075 3.175,-3.175 c 0,0 0.23,-0.17375 0.23,-0.59 m 2.59625,13.46625 v -3.64 l -4.1975,-4.1975 3.8075,-3.8075 c 0,0 0.36125,-0.3875 0.36125,-1.16625 v -2.9725 c 0,0 -0.02625,-1.4175 -1.36125,-1.4175 h -7.6975 c 0,0 -1.30625,-0.0275 -1.30625,1.58375 v 4.5575 c 0,0 0.08375,0.75 0.41625,1.0825 0.33375,0.335 2.12625,2.12625 2.12625,2.12625 l -2.0975,2.09875 c 0,0 -0.4725,0.4725 -0.4725,1.1675 V 56.355 c 0,0 0.11125,1.25125 1.445,1.25125 H 50.29 l -2.63875,-2.64 H 43.515 c 0,0 -0.8625,0 -0.8625,-0.80625 v -3.14 c 0,0 -0.04125,-0.48625 0.41625,-0.945 0.45875,-0.4575 1.3625,-1.36125 1.3625,-1.36125 z M 9.41,38.95 v 4.66375 c 0.155,3.715 2.6925,3.6525 2.6925,3.6525 H 33.585 c 2.7225,-0.46375 2.56875,-3.56 2.56875,-3.56 0,0 0.0925,-12.35 0,-15.22875 C 36.06,25.6 33.1725,25.76875 33.1725,25.76875 H 20.01875 c -2.14625,0 -2.375,-2.0875 -2.375,-2.0875 v -9.5025 c 0.2475,-2.075 2.25875,-2.075 2.25875,-2.075 h 5.9125 c 1.98125,0.2175 1.95,2.03 1.95,2.03 V 16.705 h 8.36375 V 12.09 c 0,0 0.24125,-1.565 -0.71875,-2.49375 -0.95875,-0.9275 -2.32125,-0.8225 -2.32125,-0.8225 H 11.9775 c -2.51125,0 -2.53625,2.5875 -2.53625,2.5875 v 15.3225 c 0,1.11375 0.15375,1.45375 0.77375,2.01 0.62,0.55875 2.17625,0.55875 2.17625,0.55875 H 26.0625 c 0.21625,0 0.77375,0 1.26875,0.55625 0.49625,0.55625 0.465,1.425 0.465,1.425 v 10.8325 c -0.12375,1.455 -1.64125,1.4225 -1.64125,1.4225 H 19.09875 C 17.52,43.21125 17.67,41.8175 17.67,41.8175 V 38.95 Z m 63.845,38.12625 c 0,1.33 -1.01625,1.515 -1.01625,1.515 H 64.2325 c -1.57125,-0.0613 -1.54125,-1.515 -1.54125,-1.515 0,0 -0.0613,-27.2975 0,-27.94875 C 62.75375,48.4775 63,48.23 63,48.23 c 0.27625,-0.62 1.6025,-0.4325 1.6025,-0.4325 h 6.89625 c 2.00375,0 1.72,1.95 1.72,1.95 v 4.8675 h 8.3525 v -7.74625 c 0,-1.23875 -0.24625,-1.61 -0.86375,-2.44625 -0.61625,-0.835 -2,-0.895 -2,-0.895 0,0 -20.99625,0.0062 -21.19,0 -0.19375,-0.0088 -1.6325,-0.09375 -2.525,0.95875 -0.89375,1.05125 -0.7075,2.50125 -0.7075,2.50125 v 31.82125 c 0,1.30125 0.64625,2.445 0.64625,2.445 1.17125,1.23625 2.525,0.99 2.525,0.99 H 77.9975 c 0,0 1.3875,0 2.435,-1.0825 1.0475,-1.08375 1.015,-2.755 1.015,-2.755 v -6.55 h -8.20125 c 0,0 0.009,3.88875 0.009,5.22 m 10.4625,-73.4675 2.1375,-0.0025 -31.97625,31.975 v 3.745 L 87.64,5.565 V 87.64375 L 5.51,87.64 35.7975,57.35375 v -3.6525 L 3.605,85.89375 v -0.125 -82.16 z"
     id="path3689"
     style="fill:#028053;stroke-width:1.25" />
</svg>
